<?xml version="1.0" standalone="no"?>
<!DOCTYPE svg PUBLIC "-//W3C//DTD SVG 20010904//EN"
 "http://www.w3.org/TR/2001/REC-SVG-20010904/DTD/svg10.dtd">
<svg version="1.0" xmlns="http://www.w3.org/2000/svg"
 width="512.000000pt" height="512.000000pt" viewBox="0 0 512.000000 512.000000"
 preserveAspectRatio="xMidYMid meet">
<metadata>
Created by potrace 1.11, written by Peter Selinger 2001-2013
</metadata>
<g transform="translate(0.000000,512.000000) scale(0.100000,-0.100000)"
fill="#000000" stroke="none">
<path d="M2379 5116 c-2 -2 -35 -6 -74 -10 -61 -5 -187 -24 -280 -42 -212 -40
-515 -155 -720 -272 -33 -19 -69 -40 -80 -46 -113 -63 -328 -232 -455 -358
-149 -148 -239 -256 -348 -419 -167 -249 -312 -595 -366 -869 -43 -219 -50
-297 -51 -530 0 -210 6 -286 34 -450 47 -264 153 -573 263 -763 15 -26 28 -50
28 -53 0 -18 184 -287 262 -381 212 -257 519 -499 827 -653 224 -112 502 -202
728 -236 21 -3 49 -7 63 -10 140 -26 592 -25 715 1 11 3 34 6 50 9 145 22 329
71 490 131 114 42 352 158 419 204 24 17 47 31 51 31 9 0 183 127 260 190 105
86 238 220 344 345 101 119 225 313 312 484 38 76 69 142 69 147 0 5 6 21 14
35 11 22 72 195 83 234 25 95 52 209 58 240 4 22 9 49 11 60 38 207 40 581 5
810 -111 723 -526 1362 -1151 1770 -70 46 -357 196 -425 222 -199 77 -423 135
-605 159 -25 3 -56 8 -70 10 -28 6 -456 15 -461 10z"/>
</g>
</svg>
